<svg id="Layer_1" data-name="Layer 1" xmlns="http://www.w3.org/2000/svg" viewBox="0 0 272.4 297.42"><path d="M465.77,586c-13.55-.81-26.35-.57-38.81-2.54-23.23-3.67-40-24-40-47.64q-.26-69.68,0-139.34c.11-27.29,22.48-49.86,49.75-50q86.66-.33,173.31,0c26.8.11,48.86,22.9,48.88,49.74,0,45.58-.77,91.18.31,136.73.64,27.38-20.64,52-52,52.15-18,.1-36-.2-54,.16A18.81,18.81,0,0,0,542.31,589C524,604.18,506,619.77,487.93,635.21c-2,1.7-3.77,3.86-6.06,4.92-3.68,1.7-8.61,4.62-11.33,3.37s-4.44-7-4.57-10.81C465.48,617.32,465.77,601.93,465.77,586Zm10,46.81c21.28-18.21,40.89-35.42,61.07-52a27.4,27.4,0,0,1,15.41-5.66c19.15-.66,38.33-.14,57.5-.3,22.52-.17,40.09-16.95,40.24-39.28q.48-69.27,0-138.54a41.92,41.92,0,0,0-41.62-41.73q-85.38-.48-170.77,0a42.24,42.24,0,0,0-41.75,41.68q-.43,68,0,135.93c.18,25.09,17.52,41.82,42.39,41.93q11.76,0,23.53,0c13.35,0,14,.57,14,13.54C475.82,602.71,475.79,616.88,475.79,632.83Z" transform="translate(-386.78 -346.38)"/><path d="M472.42,530.19c1.93-12.31,4.2-24.26,5.46-36.31.38-3.68-.95-8.58-3.34-11.29C467.28,474.32,459,467,451.34,459c-7.18-7.54-5-14.7,5.27-16.73,10.48-2.09,21.07-3.69,31.67-5.08,5.63-.74,9.48-2.61,11.77-8.38a243.2,243.2,0,0,1,12.86-27.46c1.83-3.3,6-7.3,9.13-7.33s7.42,3.9,9.23,7.18c5.3,9.58,9.27,19.9,14.52,29.52a14.82,14.82,0,0,0,8.68,6.76c10.45,2.22,21.18,3.05,31.67,5.09,3.31.65,7.77,2.79,8.84,5.41s-.88,7.23-3,9.71c-7.49,8.85-15.92,16.92-23.33,25.83a14.65,14.65,0,0,0-2.82,10.52c1.79,10.8,5,21.37,6.78,32.17.57,3.44-.45,8.85-2.8,10.61-2.69,2-8.34,2.47-11.53,1-10.51-4.79-20.34-11-30.76-16a13.09,13.09,0,0,0-9.95,0c-11,5.11-21.53,11.24-32.49,16.45C478,541.61,472.3,537.51,472.42,530.19Zm50-127.15c-5,10.88-9.77,20.15-13.47,29.83-3.2,8.34-8.62,12.15-17.32,13.18-11,1.31-21.93,3.61-35.36,5.91,10.29,9.92,19,18.35,27.72,26.67,4,3.83,5.88,7.61,4.51,13.78-2.56,11.5-3.68,23.32-5.61,36.43,11.25-5.59,21.61-10.46,31.68-15.86,5.67-3,10.56-3.23,16.28.08,10.83,6.3,22,12,34.36,18.57-2.9-12.68-5.08-24-8.16-35.06-2.16-7.73-1.4-13.71,4.7-19.57,8.22-7.91,15.6-16.69,24-25.77-12.93-1.88-24.74-3.21-36.35-5.53a14.76,14.76,0,0,1-8.94-6.49C534.22,427.88,528.84,416.09,522.44,403Z" transform="translate(-386.78 -346.38)"/><path d="M522.44,403c6.4,13,11.78,24.84,18,36.17a14.76,14.76,0,0,0,8.94,6.49c11.61,2.32,23.42,3.65,36.35,5.53-8.35,9.08-15.73,17.86-24,25.77-6.1,5.86-6.86,11.84-4.7,19.57,3.08,11.06,5.26,22.38,8.16,35.06-12.33-6.61-23.53-12.27-34.36-18.57-5.72-3.31-10.61-3.12-16.28-.08-10.07,5.4-20.43,10.27-31.68,15.86,1.93-13.11,3-24.93,5.61-36.43,1.37-6.17-.48-10-4.51-13.78-8.76-8.32-17.43-16.75-27.72-26.67,13.43-2.3,24.33-4.6,35.36-5.91,8.7-1,14.12-4.84,17.32-13.18C512.67,423.19,517.47,413.92,522.44,403Z" transform="translate(-386.78 -346.38)"/></svg>