<svg id="Layer_1" data-name="Layer 1" xmlns="http://www.w3.org/2000/svg" viewBox="0 0 383.02 377.75"><path d="M379.18,515.55H358.12c-3.61,0-5.32-1.7-5.33-5.26q0-10.46,0-20.92c0-4,1.88-5.7,5.93-5.66,6.58.06,13.17,0,20,0v-7.26c0-4.6,0-9.2,0-13.8s1.76-6.59,6.34-6.7c7.19-.18,14.39-.11,21.59-.06,2.21,0,3.67,1.85,3.68,4.39q0,10.8,0,21.59v1.94c.85,0,1.56.11,2.27.1,6.38-.05,12.76-.13,19.14-.16,2.88,0,5.49,1.72,5.38,5.32-.22,7.12-.06,14.25-.07,21.37,0,3.22-1.48,4.67-4.76,4.67q-9.45,0-18.92,0H410.8V524c0,4.74,0,9.49,0,14.24a3.81,3.81,0,0,1-3.78,4.07c-7.41.16-14.83.32-22.25.24-3.82,0-5.51-2.34-5.56-7-.06-5.86,0-11.72,0-17.58Z" transform="translate(-317.74 -314.81)"/><path d="M614.11,401c21.06-.11,41.82,16,41.53,42.58-.25,23.61-18.37,40.53-40.6,41a41.3,41.3,0,0,1-42.36-40.72C572.14,418.69,591.93,400.87,614.11,401Zm-30.59,41.59c-.26,16,12.88,31.16,30.52,30.89,16.65-.26,30.71-12.16,30.79-30.64s-14.06-31.94-33-31C597.67,412.55,583.11,425.74,583.52,442.63Z" transform="translate(-317.74 -314.81)"/><path d="M523.9,598.61c0,6.16-5.79,11.75-12.26,11.77-7.44,0-12.26-4.73-12.29-12.14a11.47,11.47,0,0,1,11.59-11.9C517.75,586.39,524.38,591.73,523.9,598.61Z" transform="translate(-317.74 -314.81)"/><path d="M450.06,377.6c-.18,2.79-1.38,4.26-3.17,5.15a4.61,4.61,0,0,1-5.55-.88q-6.09-6-12-12.2a4.88,4.88,0,0,1,.23-6.79c2-2.06,4.82-2.33,6.89-.35q6.09,5.84,11.92,11.94A11.36,11.36,0,0,1,450.06,377.6Z" transform="translate(-317.74 -314.81)"/><path d="M508.67,314.92c44.08,0,88.16-.2,132.24.08,25.09.16,43.35,12,54.51,34.46,4.07,8.18,5.35,17.09,5.33,26.24q-.12,81.14-.07,162.28c0,31.9.19,63.81-.08,95.71-.22,27.07-17.33,50.59-45.83,57.28-7.37,1.74-14.86,1.55-22.32,1.55q-55.55,0-111.07-.12t-111.3.08c-12.69,0-25.39.32-38.05-.3-14.07-.7-26.3-6.37-36.39-16.27a56.24,56.24,0,0,1-17-34.92,115.9,115.9,0,0,1-.82-12.62q-.07-127.22-.05-254.44c0-30,20.68-53.2,48.53-58.07,7.23-1.27,14.78-1,22.18-1q60.1-.14,120.22,0Zm-179,322c.06,1.21.1,2.16.15,3.12a5.06,5.06,0,0,0,.12.87c2.71,11.15,7.36,21.17,16.5,28.61,7.88,6.41,16.71,10.66,26.94,11.16s20.46.65,30.69.69c21.36.08,42.73,0,64.1,0l97.72-.17h2.49v-52c-13.13-.32-22-8.87-24.54-17.73a61,61,0,0,1-1.94-15.74c-.23-16.54-.07-33.09-.07-49.63a59,59,0,0,1,3.48-20.61,51.84,51.84,0,0,1,48.16-33.94c9,0,18-.05,26.94.1,7.61.13,15.35-.26,22.81.95C658.23,495,669.91,503,677.93,516.2c5.7,9.34,7.49,19.63,7.57,30.32q.15,21.13,0,42.29c-.06,6-.3,12-.91,18-1,9.62-6.61,16.06-15.13,20-2.75,1.28-5.83,1.8-8.71,2.66v47.19c.65-.3,1.11-.49,1.56-.72,17.28-8.92,26.61-23.27,26.67-42.55.26-87.18.12-174.36.09-261.55a30.63,30.63,0,0,0-.54-5.73c-2.41-12.27-8.83-22-18.6-29.74a43.94,43.94,0,0,0-25.83-9.92c-13.63-.52-27.29-.52-40.94-.5q-113.53.15-227.06.44a33.72,33.72,0,0,0-6.18.53c-22.93,4.26-41,23.07-40.63,48.72.22,15.43,0,30.87,0,46.3v2.35H437c.25-5.17,2.81-8.41,7.43-9.94.21-3.55.37-7,.63-10.48.93-12.06,12.08-22.72,25.95-22,9.12.45,20.5,7.81,22.13,20,.52,3.94.48,8,.71,12.06,5,1.43,8.36,4.49,8.36,10.33,7.7.06,14.14,2.78,18.89,8.77a75.79,75.79,0,0,1,7.16,10.39c8.3,15,16.4,30.2,24.55,45.33,1,1.91,1.91,3.91,2.84,5.85-1.09.78-2,1.35-2.77,2s-1.73,1.39-2.54,2.15c-2.17,2.07-4.15,1.84-5.6-.81q-8.7-15.81-17.29-31.67a3.15,3.15,0,0,0-3.22-1.95c-16.25.05-32.5,0-48.75,0-.42,0-.84.05-1.26.08a4.77,4.77,0,0,0-.17.79c0,13.13.07,26.26,0,39.39,0,1.38.53,1.53,1.71,1.51q10.9-.16,21.81-.18c14,0,28,0,42.07-.11,2,0,2.45.77,1.6,2.43-1,2-2.45,3.92-3.18,6.05-.94,2.73-2.7,3.17-5.25,3.16-19.89-.07-39.78,0-59.66-.06a9.62,9.62,0,0,1-2.83-.39c-4.63-1.46-7-5.19-7-11q0-21.93,0-43.86a18.41,18.41,0,0,1,.23-2.87c.62-3.92,3-5.93,6.95-5.93h50.09c-3.11-5.43-5.82-10.76-10.24-14.94a9.74,9.74,0,0,0-7-2.89q-85.83,0-171.65,0h-2.56V588.9c4.49,0,8.92.05,13.35-.07.49,0,1.24-1,1.39-1.57,4.15-17.52,24.18-31,44.95-26,13.65,3.24,23.2,11.59,27.57,25.23a2,2,0,0,0,2.31,1.68c4.82-.07,9.65,0,14.47,0l39.4.11c1.07,0,2.08.16,2.63-1.3,5.9-15.67,17-24.79,33.82-26.5,8.38-.85,15.92,1.41,22.9,5.93a4,4,0,0,1,2,3.89c-.12,2.22.05,4.46-.1,6.67a35.67,35.67,0,0,1-.84,4.41,28.55,28.55,0,0,1-3.79-2.34c-7-6-15-8.4-24.11-6.18-14.66,3.58-22.7,16.26-20,31.22,1.94,10.75,13.6,20.51,24.5,20.61,8.67.08,15.73-3.44,21.71-9.46,1.17-1.18,2.26-2.44,3.55-3.84,1.78,3.6,3.46,7,5.56,11.2-1.08.81-2.56,2-4.49,3.42,2.58,0,4.44-.06,6.29,0a5.59,5.59,0,0,1,5.09,3.34,5.17,5.17,0,0,1-.73,5.61c-1.42,1.91-3.57,2.17-5.8,2.17q-91.15-.11-182.32-.17Zm239-19.5v-5.59q.14-27.92.26-55.84a5.18,5.18,0,0,1,4.09-5.34,5.07,5.07,0,0,1,6.13,3.11,10.68,10.68,0,0,1,.49,3.89q.2,55.64.34,111.26c0,4.05,0,8.1,0,12.2.84,0,1.35.09,1.86.09,19.44,0,38.88,0,58.32-.16,3.07,0,6.14-.49,9.25-.76.06-.78.12-1.21.12-1.64q.15-40.62.29-81.22.06-20.91.13-41.84a5.21,5.21,0,0,1,4.84-5.12,5,5,0,0,1,5.42,3.9,13.41,13.41,0,0,1,.42,3.28q0,26.48,0,53v6.66c7.95-2,13.87-7.37,13.83-18.28-.08-17.73.1-35.46,0-53.19A56.82,56.82,0,0,0,673,533.06c-4.37-18.17-19.82-30.08-38.37-30-13.87.06-27.75-.06-41.62.1a38.65,38.65,0,0,0-10,1.36c-18.69,5.31-28.69,19.55-29.81,36.67-1.25,19.21-.36,38.56-.19,57.84a23.27,23.27,0,0,0,1.87,9.44C557.4,614,562.27,616.81,568.61,617.43ZM353.68,598.8A25.57,25.57,0,0,0,379,625c16.17.37,27-11.51,27.86-23.79,1.25-18.2-12.66-28.5-25.11-29C369.76,571.59,353.36,580.28,353.68,598.8Zm119.75.59H418c0,10.52-3.71,19.32-11.76,26.47h79.17C477.41,618.74,474,609.81,473.43,599.39ZM455.52,413.91h27c0-3.21.22-6.32-.05-9.38a12.5,12.5,0,0,0-10.63-11.37,13.63,13.63,0,0,0-14.68,7.53C455.23,404.88,455.58,409.32,455.52,413.91ZM354.16,625.85c-7.77-7.08-11.29-15.7-12-25.54H329.43v25.54Z" transform="translate(-317.74 -314.81)"/><path d="M494.11,382.9a4.78,4.78,0,0,1-4.84-2.76,5,5,0,0,1,.89-6c3.86-4.09,7.86-8.05,11.89-12a4.72,4.72,0,0,1,6.12-.17c1.94,1.42,3.1,4.49,1.53,6.25-4.46,5-9.33,9.57-14.1,14.26C495.21,382.94,494.35,382.85,494.11,382.9Z" transform="translate(-317.74 -314.81)"/><path d="M474.69,362.31c0,2.07,0,4.14,0,6.21-.08,3.58-1.94,5.77-4.95,5.89a5.34,5.34,0,0,1-5.42-5.53c-.13-4.65,0-9.32.29-14a4.86,4.86,0,0,1,5.33-4.48,5.05,5.05,0,0,1,4.67,5c0,1.18,0,2.36.05,3.55s0,2.22,0,3.33Z" transform="translate(-317.74 -314.81)"/><path d="M511.87,404.25c-2.22,0-4.45,0-6.67,0a5.13,5.13,0,0,1-.09-10.24c4.6-.12,9.19-.23,13.78-.28a5.05,5.05,0,0,1,5,4.87c.11,3.19-1.89,5.53-4.93,5.63-2.38.08-4.75,0-7.13,0Z" transform="translate(-317.74 -314.81)"/><path d="M426.26,394a53.34,53.34,0,0,0,6.45-.05c2.64-.32,5.17,2.32,5.26,4.61.13,3-1.72,5.52-4.69,5.63-4.59.17-9.2.16-13.8,0a4.93,4.93,0,0,1-4.88-4.35c-.32-2.47.89-5,3-5.58a23.7,23.7,0,0,1,5.07-.24C423.89,394,425.08,394,426.26,394Z" transform="translate(-317.74 -314.81)"/><path d="M380,610.42c-6.9.43-11.7-5.5-11.79-11.44a12.18,12.18,0,0,1,12-12.65A12.72,12.72,0,0,1,392.52,599,11.44,11.44,0,0,1,380,610.42Z" transform="translate(-317.74 -314.81)"/></svg>