<svg xmlns="http://www.w3.org/2000/svg" xmlns:xlink="http://www.w3.org/1999/xlink" width="1080" zoomAndPan="magnify" viewBox="0 0 810 809.999993" height="1080" preserveAspectRatio="xMidYMid meet" version="1.2"><defs><clipPath id="13f83a3174"><path d="M 503.867188 457.9375 L 779.226562 457.9375 L 779.226562 667 L 503.867188 667 Z M 503.867188 457.9375 "/></clipPath><clipPath id="0caa006907"><path d="M 703 457.9375 L 779.226562 457.9375 L 779.226562 528 L 703 528 Z M 703 457.9375 "/></clipPath><clipPath id="34e5baca99"><path d="M 507 537.101562 L 779.226562 537.101562 L 779.226562 601 L 507 601 Z M 507 537.101562 "/></clipPath><clipPath id="1e1cf1d186"><path d="M 30.726562 237 L 523 237 L 523 675 L 30.726562 675 Z M 30.726562 237 "/></clipPath><clipPath id="079ca1d3f2"><path d="M 30.726562 537 L 523 537 L 523 601 L 30.726562 601 Z M 30.726562 537 "/></clipPath><clipPath id="a5bf238316"><path d="M 105 555.371094 L 268 555.371094 L 268 717.109375 L 105 717.109375 Z M 105 555.371094 "/></clipPath><clipPath id="62dd57d3cd"><path d="M 553 555.371094 L 715 555.371094 L 715 717.109375 L 553 717.109375 Z M 553 555.371094 "/></clipPath><clipPath id="131668cf4b"><path d="M 384 92.480469 L 400 92.480469 L 400 137 L 384 137 Z M 384 92.480469 "/></clipPath></defs><g id="072221d9e5"><g clip-rule="nonzero" clip-path="url(#13f83a3174)"><path style=" stroke:none;fill-rule:evenodd;fill:#000000;fill-opacity:1;" d="M 719.847656 666.441406 L 703.761719 666.441406 C 699.476562 666.441406 695.972656 662.9375 695.972656 658.648438 C 695.972656 654.367188 699.476562 650.855469 703.761719 650.855469 L 719.847656 650.855469 C 744.027344 650.855469 763.714844 631.175781 763.714844 607.015625 L 763.714844 517.375 C 763.714844 493.207031 744.027344 473.527344 719.847656 473.527344 L 522.953125 473.527344 L 522.953125 648.421875 C 522.953125 649.246094 522.90625 650.078125 522.859375 650.855469 L 564.867188 650.855469 C 569.160156 650.855469 572.664062 654.367188 572.664062 658.648438 C 572.664062 662.9375 569.160156 666.441406 564.867188 666.441406 L 511.746094 666.441406 C 508.582031 666.441406 505.757812 664.546875 504.535156 661.621094 C 503.3125 658.695312 503.996094 655.335938 506.242188 653.144531 C 506.628906 652.757812 507.359375 651.242188 507.359375 648.421875 L 507.359375 465.730469 C 507.359375 461.441406 510.867188 457.9375 515.15625 457.9375 L 719.847656 457.9375 C 752.648438 457.9375 779.308594 484.585938 779.308594 517.375 L 779.308594 607.015625 C 779.308594 639.800781 752.648438 666.441406 719.847656 666.441406 "/></g><g clip-rule="nonzero" clip-path="url(#0caa006907)"><path style=" stroke:none;fill-rule:evenodd;fill:#000000;fill-opacity:1;" d="M 771.511719 527.601562 L 724.726562 527.601562 C 713.167969 527.601562 703.761719 518.445312 703.761719 507.136719 L 703.761719 465.730469 C 703.761719 461.441406 707.277344 457.9375 711.558594 457.9375 C 715.851562 457.9375 719.363281 461.441406 719.363281 465.730469 L 719.363281 507.136719 C 719.363281 509.769531 721.800781 512.015625 724.726562 512.015625 L 771.511719 512.015625 C 775.792969 512.015625 779.308594 515.519531 779.308594 519.808594 C 779.308594 524.097656 775.792969 527.601562 771.511719 527.601562 "/></g><g clip-rule="nonzero" clip-path="url(#34e5baca99)"><path style=" stroke:none;fill-rule:evenodd;fill:#000000;fill-opacity:1;" d="M 771.511719 600.1875 L 692.070312 600.1875 C 687.777344 600.1875 684.273438 596.683594 684.273438 592.390625 C 684.273438 588.109375 687.777344 584.597656 692.070312 584.597656 L 771.511719 584.597656 C 775.792969 584.597656 779.308594 588.109375 779.308594 592.390625 C 779.308594 596.683594 775.792969 600.1875 771.511719 600.1875 Z M 576.566406 600.1875 L 515.15625 600.1875 C 510.867188 600.1875 507.359375 596.683594 507.359375 592.390625 C 507.359375 588.109375 510.867188 584.597656 515.15625 584.597656 L 576.566406 584.597656 C 580.851562 584.597656 584.367188 588.109375 584.367188 592.390625 C 584.367188 596.683594 580.851562 600.1875 576.566406 600.1875 Z M 771.511719 553.421875 L 515.15625 553.421875 C 510.867188 553.421875 507.359375 549.914062 507.359375 545.625 C 507.359375 541.335938 510.867188 537.832031 515.15625 537.832031 L 771.511719 537.832031 C 775.792969 537.832031 779.308594 541.34375 779.308594 545.625 C 779.308594 549.914062 775.792969 553.421875 771.511719 553.421875 "/></g><path style=" stroke:none;fill-rule:evenodd;fill:#000000;fill-opacity:1;" d="M 719.847656 473.527344 C 717.214844 473.527344 714.636719 472.210938 713.167969 469.777344 L 618.132812 312.914062 C 618.085938 312.855469 618.039062 312.761719 617.992188 312.714844 C 617.308594 311.492188 616.671875 310.328125 616.09375 309.15625 C 612.335938 302.089844 611.027344 300.582031 608.734375 300.582031 L 515.15625 300.582031 C 510.867188 300.582031 507.359375 297.078125 507.359375 292.789062 C 507.359375 288.5 510.867188 284.992188 515.15625 284.992188 L 608.734375 284.992188 C 620.917969 284.992188 626.082031 294.738281 629.878906 301.851562 C 630.421875 302.875 631 303.945312 631.539062 304.96875 L 726.527344 461.734375 C 728.765625 465.4375 727.597656 470.210938 723.894531 472.457031 C 722.625 473.183594 721.210938 473.527344 719.847656 473.527344 "/><g clip-rule="nonzero" clip-path="url(#1e1cf1d186)"><path style=" stroke:none;fill-rule:evenodd;fill:#000000;fill-opacity:1;" d="M 497.617188 674.238281 L 252.964844 674.238281 C 248.671875 674.238281 245.167969 670.734375 245.167969 666.441406 C 245.167969 662.160156 248.671875 658.648438 252.964844 658.648438 L 497.617188 658.648438 C 502.878906 658.648438 507.359375 653.96875 507.359375 648.421875 L 507.359375 263.554688 C 507.359375 258.003906 502.878906 253.324219 497.617188 253.324219 L 56.070312 253.324219 C 50.800781 253.324219 46.320312 258.003906 46.320312 263.554688 L 46.320312 648.421875 C 46.320312 653.96875 50.800781 658.648438 56.070312 658.648438 L 119.910156 658.648438 C 124.199219 658.648438 127.714844 662.160156 127.714844 666.441406 C 127.714844 670.734375 124.199219 674.238281 119.910156 674.238281 L 56.070312 674.238281 C 42.085938 674.238281 30.726562 662.644531 30.726562 648.421875 L 30.726562 263.554688 C 30.726562 249.328125 42.085938 237.734375 56.070312 237.734375 L 497.617188 237.734375 C 511.601562 237.734375 522.953125 249.328125 522.953125 263.554688 L 522.953125 648.421875 C 522.953125 662.644531 511.601562 674.238281 497.617188 674.238281 "/></g><g clip-rule="nonzero" clip-path="url(#079ca1d3f2)"><path style=" stroke:none;fill-rule:evenodd;fill:#000000;fill-opacity:1;" d="M 515.15625 600.1875 L 244.191406 600.1875 C 239.898438 600.1875 236.394531 596.683594 236.394531 592.390625 C 236.394531 588.109375 239.898438 584.597656 244.191406 584.597656 L 515.15625 584.597656 C 519.449219 584.597656 522.953125 588.109375 522.953125 592.390625 C 522.953125 596.683594 519.449219 600.1875 515.15625 600.1875 Z M 128.199219 600.1875 L 38.523438 600.1875 C 34.230469 600.1875 30.726562 596.683594 30.726562 592.390625 C 30.726562 588.109375 34.230469 584.597656 38.523438 584.597656 L 128.199219 584.597656 C 132.488281 584.597656 135.996094 588.109375 135.996094 592.390625 C 135.996094 596.683594 132.488281 600.1875 128.199219 600.1875 Z M 515.15625 553.421875 L 38.523438 553.421875 C 34.230469 553.421875 30.726562 549.914062 30.726562 545.625 C 30.726562 541.335938 34.230469 537.832031 38.523438 537.832031 L 515.15625 537.832031 C 519.449219 537.832031 522.953125 541.34375 522.953125 545.625 C 522.953125 549.914062 519.449219 553.421875 515.15625 553.421875 "/></g><g clip-rule="nonzero" clip-path="url(#a5bf238316)"><path style=" stroke:none;fill-rule:evenodd;fill:#000000;fill-opacity:1;" d="M 186.191406 717.109375 C 141.839844 717.109375 105.78125 680.820312 105.78125 636.242188 C 105.78125 591.910156 141.839844 555.855469 186.191406 555.855469 C 230.785156 555.855469 267.089844 591.910156 267.089844 636.242188 C 267.089844 657.871094 258.714844 678.1875 243.40625 693.433594 C 228.152344 708.730469 207.828125 717.109375 186.191406 717.109375 Z M 186.191406 571.453125 C 150.472656 571.453125 121.375 600.527344 121.375 636.242188 C 121.375 672.246094 150.472656 701.523438 186.191406 701.523438 C 222.210938 701.523438 251.496094 672.238281 251.496094 636.242188 C 251.496094 600.527344 222.210938 571.453125 186.191406 571.453125 "/></g><path style=" stroke:none;fill-rule:evenodd;fill:#000000;fill-opacity:1;" d="M 186.191406 669.851562 C 177.226562 669.851562 168.84375 666.394531 162.503906 660.164062 C 156.128906 653.828125 152.566406 645.351562 152.566406 636.242188 C 152.566406 627.328125 156.070312 618.898438 162.457031 612.515625 C 168.84375 606.132812 177.273438 602.628906 186.191406 602.628906 C 195.304688 602.628906 203.832031 606.132812 210.121094 612.5625 C 216.355469 618.898438 219.824219 627.273438 219.824219 636.242188 C 219.824219 655.097656 205.054688 669.851562 186.191406 669.851562 Z M 186.191406 618.21875 C 176.394531 618.21875 168.160156 626.449219 168.160156 636.242188 C 168.160156 646.328125 176.109375 654.265625 186.191406 654.265625 C 196.476562 654.265625 204.226562 646.515625 204.226562 636.242188 C 204.226562 626.15625 196.28125 618.21875 186.191406 618.21875 "/><g clip-rule="nonzero" clip-path="url(#62dd57d3cd)"><path style=" stroke:none;fill-rule:evenodd;fill:#000000;fill-opacity:1;" d="M 634.5625 717.109375 C 612.921875 717.109375 592.597656 708.730469 577.34375 693.433594 C 562.089844 678.136719 553.660156 657.871094 553.660156 636.242188 C 553.660156 591.910156 589.964844 555.855469 634.5625 555.855469 C 678.910156 555.855469 714.976562 591.910156 714.976562 636.242188 C 714.976562 680.820312 678.910156 717.109375 634.5625 717.109375 Z M 634.5625 571.453125 C 598.546875 571.453125 569.253906 600.527344 569.253906 636.242188 C 569.253906 672.246094 598.546875 701.523438 634.5625 701.523438 C 670.289062 701.523438 699.375 672.238281 699.375 636.242188 C 699.375 600.527344 670.28125 571.453125 634.5625 571.453125 "/></g><path style=" stroke:none;fill-rule:evenodd;fill:#000000;fill-opacity:1;" d="M 634.5625 669.851562 C 615.699219 669.851562 600.9375 655.097656 600.9375 636.242188 C 600.9375 627.273438 604.394531 618.898438 610.628906 612.5625 C 616.96875 606.179688 625.445312 602.628906 634.5625 602.628906 C 643.484375 602.628906 651.910156 606.132812 658.292969 612.515625 C 664.679688 618.898438 668.195312 627.328125 668.195312 636.242188 C 668.195312 645.351562 664.679688 653.875 658.246094 660.164062 C 651.910156 666.394531 643.523438 669.851562 634.5625 669.851562 Z M 634.5625 618.21875 C 624.472656 618.21875 616.53125 626.15625 616.53125 636.242188 C 616.53125 646.515625 624.28125 654.265625 634.5625 654.265625 C 644.652344 654.265625 652.589844 646.328125 652.589844 636.242188 C 652.589844 626.449219 644.355469 618.21875 634.5625 618.21875 "/><path style=" stroke:none;fill-rule:evenodd;fill:#000000;fill-opacity:1;" d="M 304.617188 483.753906 L 249.554688 483.753906 C 245.261719 483.753906 241.753906 480.25 241.753906 475.960938 L 241.753906 421.882812 L 187.65625 421.882812 C 183.367188 421.882812 179.859375 418.378906 179.859375 414.089844 L 179.859375 359.042969 C 179.859375 354.753906 183.367188 351.25 187.65625 351.25 L 241.753906 351.25 L 241.753906 297.65625 C 241.753906 293.375 245.261719 289.863281 249.554688 289.863281 L 304.617188 289.863281 C 308.910156 289.863281 312.417969 293.375 312.417969 297.65625 L 312.417969 351.25 L 366.03125 351.25 C 370.3125 351.25 373.828125 354.753906 373.828125 359.042969 L 373.828125 414.089844 C 373.828125 418.378906 370.3125 421.882812 366.03125 421.882812 L 312.417969 421.882812 L 312.417969 475.960938 C 312.417969 480.25 308.910156 483.753906 304.617188 483.753906 Z M 257.351562 468.167969 L 296.820312 468.167969 L 296.820312 414.089844 C 296.820312 409.800781 300.335938 406.292969 304.617188 406.292969 L 358.234375 406.292969 L 358.234375 366.839844 L 304.617188 366.839844 C 300.335938 366.839844 296.820312 363.328125 296.820312 359.042969 L 296.820312 305.453125 L 257.351562 305.453125 L 257.351562 359.042969 C 257.351562 363.328125 253.835938 366.839844 249.554688 366.839844 L 195.457031 366.839844 L 195.457031 406.292969 L 249.554688 406.292969 C 253.835938 406.292969 257.351562 409.800781 257.351562 414.089844 L 257.351562 468.167969 "/><path style=" stroke:none;fill-rule:evenodd;fill:#000000;fill-opacity:1;" d="M 424.023438 253.324219 C 419.730469 253.324219 416.226562 249.820312 416.226562 245.53125 L 416.226562 199.246094 C 416.226562 186.046875 405.066406 174.890625 391.859375 174.890625 C 378.699219 174.890625 367.972656 185.808594 367.972656 199.246094 L 367.972656 245.53125 C 367.972656 249.820312 364.46875 253.324219 360.175781 253.324219 C 355.894531 253.324219 352.378906 249.820312 352.378906 245.53125 L 352.378906 199.246094 C 352.378906 177.230469 370.074219 159.300781 391.859375 159.300781 C 402.429688 159.300781 412.425781 163.496094 420.023438 171.089844 C 427.625 178.695312 431.820312 188.679688 431.820312 199.246094 L 431.820312 245.53125 C 431.820312 249.820312 428.3125 253.324219 424.023438 253.324219 "/><g clip-rule="nonzero" clip-path="url(#131668cf4b)"><path style=" stroke:none;fill-rule:evenodd;fill:#000000;fill-opacity:1;" d="M 391.859375 136.410156 C 387.566406 136.410156 384.058594 132.898438 384.058594 128.613281 L 384.058594 100.355469 C 384.058594 96.066406 387.566406 92.5625 391.859375 92.5625 C 396.148438 92.5625 399.65625 96.066406 399.65625 100.355469 L 399.65625 128.613281 C 399.65625 132.898438 396.148438 136.410156 391.859375 136.410156 "/></g><path style=" stroke:none;fill-rule:evenodd;fill:#000000;fill-opacity:1;" d="M 446.929688 159.300781 C 444.933594 159.300781 442.933594 158.523438 441.417969 157.015625 C 438.402344 153.996094 438.402344 149.023438 441.417969 146.003906 L 461.40625 126.03125 C 464.421875 123.007812 469.394531 123.007812 472.417969 126.03125 C 475.441406 129.050781 475.441406 134.023438 472.417969 137.035156 L 452.4375 157.015625 C 450.929688 158.523438 448.921875 159.300781 446.929688 159.300781 "/><path style=" stroke:none;fill-rule:evenodd;fill:#000000;fill-opacity:1;" d="M 336.785156 159.300781 C 334.785156 159.300781 332.792969 158.523438 331.277344 157.015625 L 311.296875 137.035156 C 308.277344 134.023438 308.277344 129.050781 311.296875 126.03125 C 314.320312 123.007812 319.292969 123.007812 322.316406 126.03125 L 342.296875 146.003906 C 345.320312 149.023438 345.320312 153.996094 342.296875 157.015625 C 340.78125 158.523438 338.78125 159.300781 336.785156 159.300781 "/></g></svg>