<svg id="Layer_1" data-name="Layer 1" xmlns="http://www.w3.org/2000/svg" viewBox="0 0 1080 1080"><defs><style>.cls-1{stroke:#000;stroke-miterlimit:10;stroke-width:4px;}</style></defs><path class="cls-1" d="M640.67,473.42c-15.75,14.81-31.85,29.26-47.15,44.52q-28.74,28.65-56.28,58.49c-6.5,7.08-10.26,6.13-16-.49-16.64-19.35-33.47-38.58-50.87-57.24-7-7.45-1.41-10.2,3.12-14.23,4.76-4.23,8.4-9.87,15.19-1.41,11,13.65,23.32,26.17,34.58,39.6,5,6,8.08,5.59,13.36.06q58-60.74,116.63-120.94c2.28-2.36,4.18-6.86,7.78-5.63s2.35,6,2.45,9.27c1.39,43.13,2.44,86.2-13.93,127.44-20.06,50.54-52.84,89.39-102.1,113.77-17.29,8.56-33.89,9.32-51.38.74-62.26-30.53-98.5-81.06-113.45-147.7-7.68-34.23-6-68.92-2.64-103.55.9-9.32,8.18-7.66,13.77-7.8a174.3,174.3,0,0,0,94.5-30.06,146.4,146.4,0,0,0,27-22.78c4-4.4,6.84-4.37,11-.05A169.48,169.48,0,0,0,605,402c11.4,3.1,5.58,10.24,5,16.21-.82,7.82-5.16,8.55-12.1,6.53-25.2-7.33-48.29-18.7-68.79-35.06-5.56-4.44-9.63-5.58-15.84-.72-30.38,23.77-64.6,38.52-103.28,42-4.36.39-7,1.68-7.54,6.58-9.5,79.47,19.79,165.69,99.79,206.61,13.2,6.75,24.92,6.6,37.81-.26,52.62-28,83.41-72.09,96-129.6C639.05,500.59,641.25,486.64,640.67,473.42Z"/></svg>