<svg id="Layer_1" data-name="Layer 1" xmlns="http://www.w3.org/2000/svg" viewBox="0 0 327.01 312.45"><path d="M625,467.87V478.4c0,42.79-.14,85.58.12,128.36,0,7-1.47,9.78-9.22,9.75q-118.18-.42-236.36,0c-7.43,0-8.85-2.69-8.82-9.29.2-46,.11-92,.11-139.44-9.07,0-18.08.24-27.06-.14-2.91-.12-5.75-1.84-8.62-2.83,1.22-3,1.64-6.9,3.78-9q75.41-74.18,151.05-148.1c5.39-5.3,9-4.49,13.95.39,17.84,17.63,36,35,54,52.36,1.59,1.53,3.38,2.85,6.42,5.37,0-10.93.36-20.27-.11-29.58-.39-7.54,2.72-9.75,9.88-9.39,10,.49,20.08.5,30.08,0,6.87-.35,9.39,1.78,9.29,8.89q-.53,35.4.07,70.82A16.66,16.66,0,0,0,618,417.06c13,12.89,26.57,25.15,39.59,38,2.36,2.33,3.08,6.34,4.56,9.57-3.1,1.09-6.16,2.95-9.3,3.11C644,468.15,635.18,467.87,625,467.87Zm-128.34-152L352.69,457.1c7.14,0,12.76.46,18.27-.11,8-.83,10,2.43,10,10.08-.31,43.09-.15,86.18-.15,129.27v9.42H614.15c.15-3,.39-5.6.39-8.2,0-43.68.18-87.36-.14-131-.06-7.53,2.38-10.06,9.67-9.48,6.22.49,12.5.1,20.58.1Zm106.83,87.83V338.38H573.84c0,11.67-.07,22.78.07,33.89a7.37,7.37,0,0,0,1.59,4.78C584.42,385.76,593.53,394.28,603.45,403.67Z" transform="translate(-335.11 -304.06)"/><path d="M559,484.22c-4,11.47-6.36,23.95-12.46,34.18-12.5,20.91-26.83,40.74-40.8,60.73-6.15,8.79-10.63,8.53-16.78-.25-13.49-19.26-27.42-38.26-40-58.09C431,492.67,434,460,455.71,438.94c17.92-17.39,39.2-22.28,62.56-13.52,24.07,9,38.19,31.28,38.4,58Zm-62.2,90.71c3.67-5.13,5.82-7.91,7.74-10.84,12.26-18.67,25.67-36.7,36.39-56.21,14.71-26.78,2.61-60.94-23.91-72.48-18.38-8-40.79-3.76-54.73,10.33-15.25,15.42-20.57,41.06-9.6,60.38C465.82,529.28,481.34,551.1,496.77,574.93Z" transform="translate(-335.11 -304.06)"/><path d="M520.71,483.18c-.06,13.83-10,23.46-24.09,23.36-12.74-.08-23.74-11.15-23.45-23.61.31-13,11.92-24.32,24.59-23.92A23.76,23.76,0,0,1,520.71,483.18Zm-23.66,14.28c7.08,0,14.16-7,14.32-14.25.17-7.39-6.34-13.8-14.13-13.91-7.95-.12-13.77,5.71-13.8,13.83S489.44,497.47,497.05,497.46Z" transform="translate(-335.11 -304.06)"/><path d="M497.05,497.46c-7.61,0-13.65-6.34-13.61-14.33s5.85-13.95,13.8-13.83c7.79.11,14.3,6.52,14.13,13.91C511.21,490.41,504.13,497.45,497.05,497.46Z" transform="translate(-335.11 -304.06)"/></svg>