<svg id="Layer_1" data-name="Layer 1" xmlns="http://www.w3.org/2000/svg" viewBox="0 0 1080 1080"><defs><style>.cls-1{stroke:#fff;stroke-miterlimit:10;stroke-width:4px;}</style></defs><path class="cls-1" d="M412.44,314.06c0-9.45-1.7-17.54.51-24.37,2-6.06,8.26-10.72,12.64-16,4.53,5.05,11.07,9.42,13.05,15.32,2.28,6.81.53,15,.53,23.76h81.69c.43-8.72-.66-17.33,1.75-24.81,1.78-5.51,8.15-9.54,12.47-14.22,4.74,4.93,11.58,9.12,13.66,15,2.39,6.75.55,15,.55,23.92h82.82c0-9-1.67-18.15.61-26.21,1.44-5.09,8.35-10.75,13.67-11.81,3-.6,10.08,7,11.29,11.83,1.93,7.8.51,16.44.51,27.56,18.57,0,35.66-.19,52.75,0,30.49.43,43.51,13.34,43.54,43.52q.15,155.17,0,310.34c0,29.83-13.56,43.68-43.6,43.74q-175.39.32-350.79,0c-29.73-.06-43.65-14.28-43.7-43.93q-.22-155.18,0-310.34c.05-29.16,13.23-42.53,42.17-43.26C375.82,313.71,393.08,314.06,412.44,314.06ZM632,342.72H550.42c-.37,6.76-.88,12.39-.95,18-.13,10.14-.69,20.81-14.13,20.58-13.59-.23-13-11.56-13.55-21.26-.3-5.63-.7-11.25-1.08-17.26H439.2c0,8.14,1.79,15.7-.48,21.74-2.42,6.45-8.67,11.46-13.25,17.1-4.35-5.94-10.25-11.34-12.6-18-2.15-6.07-.46-13.49-.46-22.13-17,0-31.7,1-46.22-.26-17.95-1.6-23.11,5.39-23,23q1.07,148.31,0,296.61c-.11,17.21,4.45,23.47,22.69,23.35q169.46-1.14,338.94,0c19.45.14,23.51-7.16,23.39-24.78-.65-97.58-.31-195.17-.32-292.75,0-4.49,1.38-9.85-.56-13.27-2.68-4.69-7.71-11-12.1-11.26-18.31-1.25-36.76-.52-57-.52,0,9.94,1.77,18.09-.54,24.86-2,5.84-8.61,10.1-13.19,15.06-4.18-4.72-10.38-8.83-12-14.31C630.45,360.28,632,352.18,632,342.72Z"/><path class="cls-1" d="M657.43,438v38.52H606.05V438Z"/><path class="cls-1" d="M561.11,438v38.52H509.73V438Z"/><path class="cls-1" d="M465.08,545.54H413.47V507.27h51.61Z"/><path class="cls-1" d="M509.29,545.57V506.86h52v38.71Z"/><path class="cls-1" d="M605.5,545.08V506.71h51.3v38.37Z"/><path class="cls-1" d="M413.43,575.46h51.68V614.2H413.43Z"/><path class="cls-1" d="M509.37,614.57V576.19h51.81v38.38Z"/><path class="cls-1" d="M657.43,576.14v38.17h-51.1V576.14Z"/><path class="cls-1" d="M412.94,476.18V438.46h52.37v37.72Z"/><path d="M510.12,519.55c-13-12.87-25.77-25.53-38.51-38.25q-45.94-45.87-91.84-91.78c-6.17-6.17-6.88-13.88-1.77-19.13s12.82-4.7,19.06,1.54q63.44,63.4,126.83,126.85c1.06,1.05,2.17,2.05,3.61,3.41,1.38-1.22,2.66-2.23,3.81-3.38Q594.76,435.41,658.19,372c8.34-8.33,19.59-6.2,22.36,4.28,1.5,5.68-1.41,9.79-5.21,13.58Q637.63,427.45,600,465.11l-51.55,51.55c-.92.93-1.78,1.93-3,3.22,1,1.21,1.92,2.36,2.94,3.37Q612,586.87,675.69,650.45c3.68,3.68,6.28,7.7,4.85,13.14-2.62,10-13.9,12.69-21.58,5.07-15.49-15.38-30.86-30.89-46.28-46.33q-41.26-41.3-82.55-82.57c-.64-.64-1.44-1.15-4-3.26-1.15,2-1.94,4.31-3.5,5.87Q460.29,604.89,397.75,667.2a21.89,21.89,0,0,1-8.4,5.46c-5.29,1.66-10.89-1.31-13.42-6.13s-1.61-10.7,2.76-15.12c9.47-9.58,19.05-19.06,28.59-28.59q49.76-49.71,99.49-99.45C507.82,522.33,508.73,521.15,510.12,519.55Z"/></svg>