<svg id="Layer_1" data-name="Layer 1" xmlns="http://www.w3.org/2000/svg" viewBox="0 0 277.91 348.69"><path d="M482.55,544.63c-24.37-1.1-31.3-17.43-35.95-44.83-17.28-8.29-21.08-16.7-14.7-35.26,3-8.64,7.42-16.76,11.52-25.81-9-6-10.7-16.69-8.9-27,3.4-19.46-4.43-30-22.68-35.12-7.25-2.06-14.07-5.9-20.79-9.49-2.75-1.46-4.7-4.42-7-6.69,2.37-2.37,4.31-5.67,7.17-6.95,20-9,40.07-17.91,60.34-26.29q31.71-13.11,63.89-25.08c4.12-1.53,9.78-2.27,13.63-.69,41.2,16.84,82.19,34.2,123.22,51.47a25.41,25.41,0,0,1,5.86,3.15c5.17,4.05,5.33,8.53-1.22,10.45-6.27,1.84-6.51,5.66-6.43,10.76.2,11.83.09,23.66.07,35.48,0,6.91-.25,13.2,5.47,19.23,5.17,5.43,4.77,13.25-1.77,18.7-5.72,4.76-12,4-17.43-.61-6.32-5.27-8-14.42-2.2-19.4s5.64-10.81,5.62-17.14c0-12.67,0-25.34,0-39.32-9.66,4.25-18.4,7.79-26.79,12-1.79.9-3,4.33-3.2,6.71-.81,9.22-1.11,18.48-1.62,27.72-.07,1.27.27,3-.4,3.76-9.81,11.49-3.23,23.4-1.07,35.19,2.81,15.36-2.63,27.43-14.66,36.88-1.49,1.18-3.71,1.95-4.44,3.46-5.69,11.63-11.53,23.22-16.44,35.18-4.47,10.9.83,24.87,12.12,31.22,9.65,5.43,20.14,9.35,30.21,14,17.21,8,34,16.58,41.83,35.65,4.32,10.5,3.18,13.33-7.75,16.59a388.85,388.85,0,0,1-150.34,14.72c-30.62-3-61.08-8.25-91.39-13.73C391.85,631,389.19,625,397.49,613a71.09,71.09,0,0,1,23.74-21c15.84-8.68,33-14.94,49.49-22.46C485.58,562.76,485.78,562.05,482.55,544.63Z" transform="translate(-384.03 -300.56)"/></svg>